<svg xmlns="http://www.w3.org/2000/svg" xmlns:xlink="http://www.w3.org/1999/xlink" width="500" zoomAndPan="magnify" viewBox="0 0 375 374.999991" height="500" preserveAspectRatio="xMidYMid meet" version="1.0"><defs><g/><clipPath id="8b48811adf"><path d="M 28.222656 136.171875 L 180.203125 136.171875 L 180.203125 154.128906 L 28.222656 154.128906 Z M 28.222656 136.171875 " clip-rule="nonzero"/></clipPath><clipPath id="5b8171252c"><path d="M 194.117188 136.171875 L 346.777344 136.171875 L 346.777344 154.128906 L 194.117188 154.128906 Z M 194.117188 136.171875 " clip-rule="nonzero"/></clipPath></defs><g clip-path="url(#8b48811adf)"><path fill="#a6a6a6" d="M 28.222656 136.171875 L 180.230469 136.171875 L 180.230469 154.128906 L 28.222656 154.128906 Z M 28.222656 136.171875 " fill-opacity="1" fill-rule="nonzero"/></g><g fill="#ffffff" fill-opacity="1"><g transform="translate(32.270807, 215.055059)"><g><path d="M 21.78125 0 L 21.78125 -47.625 L 2.59375 -47.625 L 2.59375 -60.5 L 54.71875 -60.5 L 54.71875 -47.625 L 35.53125 -47.625 L 35.53125 0 Z M 21.78125 0 "/></g></g></g><g fill="#ffffff" fill-opacity="1"><g transform="translate(107.474262, 215.055059)"><g><path d="M 7.265625 0 L 7.265625 -60.5 L 33.109375 -60.5 C 37.710938 -60.5 41.710938 -59.664062 45.109375 -58 C 48.515625 -56.332031 51.140625 -53.941406 52.984375 -50.828125 C 54.828125 -47.710938 55.75 -43.992188 55.75 -39.671875 C 55.75 -35.234375 54.738281 -31.414062 52.71875 -28.21875 C 50.707031 -25.019531 47.882812 -22.613281 44.25 -21 L 56.796875 0 L 40.890625 0 L 30.078125 -18.84375 L 21 -18.84375 L 21 0 Z M 20.828125 -30.421875 L 31.296875 -30.421875 C 34.691406 -30.421875 37.296875 -31.210938 39.109375 -32.796875 C 40.921875 -34.390625 41.828125 -36.65625 41.828125 -39.59375 C 41.828125 -42.53125 40.921875 -44.789062 39.109375 -46.375 C 37.296875 -47.957031 34.691406 -48.75 31.296875 -48.75 L 20.828125 -48.75 Z M 20.828125 -30.421875 "/></g></g></g><g fill="#ffffff" fill-opacity="1"><g transform="translate(186.221702, 215.055059)"><g><path d="M 35.953125 1.203125 C 29.671875 1.203125 24.09375 -0.132812 19.21875 -2.8125 C 14.351562 -5.488281 10.550781 -9.1875 7.8125 -13.90625 C 5.082031 -18.632812 3.71875 -24.082031 3.71875 -30.25 C 3.71875 -36.414062 5.082031 -41.859375 7.8125 -46.578125 C 10.550781 -51.304688 14.351562 -55.007812 19.21875 -57.6875 C 24.09375 -60.375 29.671875 -61.71875 35.953125 -61.71875 C 42.296875 -61.71875 47.882812 -60.375 52.71875 -57.6875 C 57.5625 -55.007812 61.363281 -51.304688 64.125 -46.578125 C 66.894531 -41.859375 68.28125 -36.414062 68.28125 -30.25 C 68.28125 -24.082031 66.894531 -18.632812 64.125 -13.90625 C 61.363281 -9.1875 57.5625 -5.488281 52.71875 -2.8125 C 47.882812 -0.132812 42.296875 1.203125 35.953125 1.203125 Z M 17.71875 -30.25 C 17.71875 -26.625 18.492188 -23.425781 20.046875 -20.65625 C 21.609375 -17.894531 23.753906 -15.734375 26.484375 -14.171875 C 29.222656 -12.617188 32.378906 -11.84375 35.953125 -11.84375 C 39.585938 -11.84375 42.769531 -12.617188 45.5 -14.171875 C 48.238281 -15.734375 50.375 -17.894531 51.90625 -20.65625 C 53.4375 -23.425781 54.203125 -26.625 54.203125 -30.25 C 54.203125 -33.882812 53.4375 -37.082031 51.90625 -39.84375 C 50.375 -42.613281 48.238281 -44.773438 45.5 -46.328125 C 42.769531 -47.890625 39.585938 -48.671875 35.953125 -48.671875 C 32.378906 -48.671875 29.222656 -47.890625 26.484375 -46.328125 C 23.753906 -44.773438 21.609375 -42.613281 20.046875 -39.84375 C 18.492188 -37.082031 17.71875 -33.882812 17.71875 -30.25 Z M 17.71875 -30.25 "/></g></g></g><g fill="#ffffff" fill-opacity="1"><g transform="translate(276.119738, 215.055059)"><g><path d="M 7.265625 0 L 7.265625 -60.5 L 18.9375 -60.5 L 45.640625 -23.6875 L 45.640625 -60.5 L 59.296875 -60.5 L 59.296875 0 L 47.625 0 L 20.921875 -37.078125 L 20.921875 0 Z M 7.265625 0 "/></g></g></g><g clip-path="url(#5b8171252c)"><path fill="#ff66c4" d="M 194.117188 136.171875 L 346.753906 136.171875 L 346.753906 154.128906 L 194.117188 154.128906 Z M 194.117188 136.171875 " fill-opacity="1" fill-rule="nonzero"/></g></svg>